<?xml version="1.0"?>
<svg xmlns="http://www.w3.org/2000/svg" height="512px" viewBox="0 0 512 512" width="512px"><g><path d="m319.019531 512h-126.039062v-40.730469c-15.484375-4.539062-30.40625-10.742187-44.59375-18.535156l-28.847657 28.847656-89.117187-89.125 28.84375-28.847656c-7.792969-14.183594-13.996094-29.105469-18.53125-44.589844h-40.734375v-126.039062h40.730469c4.539062-15.484375 10.742187-30.40625 18.535156-44.59375l-28.84375-28.84375 89.121094-89.121094 28.847656 28.84375c14.183594-7.792969 29.105469-13.996094 44.589844-18.53125v-40.734375h126.039062v40.730469c15.484375 4.539062 30.40625 10.742187 44.59375 18.535156l28.847657-28.847656 89.121093 89.121093-28.847656 28.847657c7.792969 14.1875 13.996094 29.109375 18.535156 44.59375h40.730469v126.039062h-40.730469c-4.539062 15.484375-10.742187 30.40625-18.535156 44.59375l28.847656 28.847657-89.121093 89.121093-28.847657-28.847656c-14.1875 7.792969-29.109375 13.996094-44.59375 18.535156zm-96.039062-30h66.039062v-34.15625l11.558594-2.722656c20.339844-4.792969 39.699219-12.839844 57.550781-23.917969l10.105469-6.269531 24.222656 24.222656 46.695313-46.695312-24.222656-24.226563 6.273437-10.105469c11.078125-17.847656 19.125-37.210937 23.914063-57.550781l2.726562-11.558594h34.15625v-66.039062h-34.15625l-2.722656-11.558594c-4.792969-20.339844-12.839844-39.703125-23.917969-57.550781l-6.269531-10.105469 24.222656-24.226563-46.695312-46.695312-24.226563 24.222656-10.105469-6.269531c-17.847656-11.078125-37.210937-19.125-57.550781-23.917969l-11.558594-2.722656v-34.15625h-66.039062v34.15625l-11.558594 2.722656c-20.339844 4.792969-39.703125 12.839844-57.550781 23.917969l-10.105469 6.269531-24.226563-24.222656-46.695312 46.695312 24.222656 24.226563-6.269531 10.105469c-11.078125 17.847656-19.125 37.210937-23.917969 57.550781l-2.722656 11.558594h-34.15625v66.039062h34.15625l2.722656 11.558594c4.792969 20.339844 12.839844 39.699219 23.917969 57.550781l6.269531 10.105469-24.222656 24.222656 46.695312 46.695313 24.226563-24.222656 10.105469 6.273437c17.847656 11.078125 37.210937 19.125 57.550781 23.914063l11.558594 2.726562zm0 0" data-original="#000000" class="active-path" data-old_color="#000000" fill="#FFFFFF"/><path d="m256 412c-86.019531 0-156-69.980469-156-156s69.980469-156 156-156 156 69.980469 156 156-69.980469 156-156 156zm0-282c-69.476562 0-126 56.523438-126 126s56.523438 126 126 126 126-56.523438 126-126-56.523438-126-126-126zm0 0" data-original="#000000" class="active-path" data-old_color="#000000" fill="#FFFFFF"/><path d="m331.949219 271h-90.949219v-90.949219h30v60.949219h60.949219zm0 0" data-original="#000000" class="active-path" data-old_color="#000000" fill="#FFFFFF"/></g> </svg>
