<svg id="Layer_1" data-name="Layer 1" xmlns="http://www.w3.org/2000/svg" viewBox="0 0 274.28 92.03"><defs><style>.cls-1{fill:#aedddd;}.cls-2{fill:#c3efdd;}.cls-3{fill:#d9ffdd;}.cls-4,.cls-5{fill:#242e35;stroke:#242e35;stroke-linecap:round;stroke-linejoin:round;}.cls-5{font-size:38px;font-family:Helvetica;letter-spacing:0.3em;}</style></defs><title>obati_fix</title><path class="cls-1" d="M84.92,123.59a23.59,23.59,0,0,1,0-47.18H132a23.59,23.59,0,0,1,0,47.18Z" transform="translate(-49.44 -54.02)"/><path class="cls-1" d="M132,76.91A23.09,23.09,0,0,1,155.1,100h0A23.09,23.09,0,0,1,132,123.09H84.92A23.09,23.09,0,0,1,61.83,100h0A23.09,23.09,0,0,1,84.92,76.91H132m0-1H84.92a24.09,24.09,0,0,0,0,48.18H132a24.09,24.09,0,0,0,0-48.18Z" transform="translate(-49.44 -54.02)"/><path class="cls-2" d="M82.86,123.59a.5.5,0,0,1-.43-.24.5.5,0,0,1,0-.49L98.69,90.77a.48.48,0,0,1,.36-.26h.08a.51.51,0,0,1,.36.15l31.81,32.09a.48.48,0,0,1,.11.54.5.5,0,0,1-.46.31Z" transform="translate(-49.44 -54.02)"/><path class="cls-2" d="M99.13,91,131,123.09H82.86L99.13,91m0-1H99a1,1,0,0,0-.74.54L82,122.64a1,1,0,0,0,0,1,1,1,0,0,0,.85.48H131a1,1,0,0,0,.71-1.7L99.84,90.3a1,1,0,0,0-.71-.3Z" transform="translate(-49.44 -54.02)"/><path class="cls-3" d="M84.92,123.59a23.59,23.59,0,0,1,0-47.18h30.81a.5.5,0,0,1,.44.74L90.84,123.33a.51.51,0,0,1-.44.26Z" transform="translate(-49.44 -54.02)"/><path class="cls-3" d="M115.73,76.91,90.4,123.09H84.92A23.09,23.09,0,0,1,61.83,100h0A23.09,23.09,0,0,1,84.92,76.91h30.81m0-1H84.92a24.09,24.09,0,0,0,0,48.18H90.4a1,1,0,0,0,.88-.52l25.33-46.18a1,1,0,0,0-.88-1.48Zm0,2h0Z" transform="translate(-49.44 -54.02)"/><path class="cls-4" d="M56.42,100a28,28,0,0,1,28-28H109.8L89.2,54.52V66.19H83.79A33.85,33.85,0,0,0,49.94,100h0a33.85,33.85,0,0,0,33.85,33.84H89.2v11.68L109.8,128H84.42A28,28,0,0,1,56.42,100Z" transform="translate(-49.44 -54.02)"/><rect class="cls-1" x="263.4" y="17.39" width="5.97" height="15.58" rx="0.5"/><path class="cls-1" d="M318.32,71.91V86.48h-5V71.91h5m0-1h-5a1,1,0,0,0-1,1V86.48a1,1,0,0,0,1,1h5a1,1,0,0,0,1-1V71.91a1,1,0,0,0-1-1Z" transform="translate(-49.44 -54.02)"/><rect class="cls-1" x="258.99" y="21.91" width="14.79" height="6.54" rx="0.5"/><path class="cls-1" d="M322.73,76.43V82H308.94V76.43h13.79m0-1H308.94a1,1,0,0,0-1,1V82a1,1,0,0,0,1,1h13.79a1,1,0,0,0,1-1V76.43a1,1,0,0,0-1-1Z" transform="translate(-49.44 -54.02)"/><text class="cls-5" transform="translate(126.59 59.64)">obati</text></svg>