<svg width="91" height="94" viewBox="0 0 91 94" fill="none" xmlns="http://www.w3.org/2000/svg">
<path d="M42.1139 3.43468L39.8279 5.77121C33.7014 2.26642 26.3862 1.56547 19.8482 3.7618L19.4825 3.43468C15.0476 -1.1449 7.77814 -1.1449 3.3433 3.43468C-1.09154 8.01427 -1.13726 15.3977 3.3433 19.9305L3.66334 20.3044C1.5145 26.9868 2.2003 34.4637 5.6293 40.7256L3.3433 43.0621C2.70189 43.7097 2.19264 44.481 1.84508 45.3313C1.49751 46.1816 1.31854 47.094 1.31854 48.0155C1.31854 48.937 1.49751 49.8494 1.84508 50.6997C2.19264 51.55 2.70189 52.3213 3.3433 52.9689L9.78982 59.6046C12.4873 62.315 16.785 62.315 19.4825 59.6046L21.0827 57.9223L53.4524 90.9607C56.1042 93.7178 60.4476 93.7178 63.1451 90.9607L88.9769 64.5581C91.6744 61.801 91.6744 57.3616 88.9769 54.6045L56.6528 21.5661L58.2988 19.9305C60.9505 17.1734 60.9505 12.7808 58.2988 10.0237L51.8065 3.38795C50.5146 2.08147 48.7681 1.35256 46.9507 1.36132C45.1334 1.37008 43.3937 2.1158 42.1139 3.43468ZM9.9727 23.2951C10.3385 21.7063 10.9785 20.1642 11.8472 18.7155L8.18962 14.9771C7.69875 14.5034 7.33644 13.9076 7.13806 13.2481C6.5437 11.6592 6.86374 9.69656 8.18962 8.38811C9.5155 7.07966 11.39 6.70581 12.9445 7.31331C13.5846 7.50023 14.1332 7.87407 14.6361 8.38811L18.2937 12.1265C19.7111 11.2387 21.2198 10.5844 22.7743 10.2106C26.7062 9.04233 30.9125 9.32272 34.6615 11.005L10.7499 35.445C9.10402 31.6131 8.8297 27.3139 9.9727 23.2951ZM84.1306 59.6046L58.2988 86.0073L25.9747 52.9689L51.8065 26.5662L84.1306 59.6046ZM53.4524 14.9771L14.6361 54.6512L8.18962 48.0155L46.9602 8.38811L53.4524 14.9771ZM58.2988 44.6976L43.7141 59.6046L38.8678 54.6512L53.4524 39.7442L58.2988 44.6976ZM67.9914 54.6512L53.4524 69.5115L48.5604 64.5581L63.1451 49.6511L67.9914 54.6512Z" fill="#B8B8B8"/>
</svg>
