<?xml version="1.0"?>
<svg xmlns="http://www.w3.org/2000/svg" id="water" enable-background="new 0 0 300 300" height="512px" viewBox="0 0 300 300" width="512px" class=""><g><g><path d="m237.88 44.354c2.211 0 4-1.789 4-4v-8c0-2.211-1.789-4-4-4s-4 1.789-4 4v8c0 2.21 1.789 4 4 4z" data-original="#000000" class="active-path" data-old_color="#000000" fill="#FFFFFF"/><path d="m237.88 52.354c-2.211 0-4 1.789-4 4v8c0 2.211 1.789 4 4 4s4-1.789 4-4v-8c0-2.211-1.79-4-4-4z" data-original="#000000" class="active-path" data-old_color="#000000" fill="#FFFFFF"/><path d="m221.88 52.354h8c2.211 0 4-1.789 4-4s-1.789-4-4-4h-8c-2.211 0-4 1.789-4 4s1.789 4 4 4z" data-original="#000000" class="active-path" data-old_color="#000000" fill="#FFFFFF"/><path d="m245.88 52.354h8c2.211 0 4-1.789 4-4s-1.789-4-4-4h-8c-2.211 0-4 1.789-4 4s1.789 4 4 4z" data-original="#000000" class="active-path" data-old_color="#000000" fill="#FFFFFF"/><path d="m65.348 128.518c1.551-2.906 1.883-6.246.926-9.398s-3.082-5.746-5.988-7.301c-2.91-1.555-6.246-1.895-9.398-.93-3.152.957-5.746 3.082-7.301 5.988s-1.887 6.246-.93 9.398c.957 3.156 3.082 5.75 5.988 7.305 1.816.969 3.801 1.461 5.805 1.461 1.199 0 2.41-.176 3.594-.535 3.156-.957 5.75-3.082 7.304-5.988zm-9.625-1.668c-1.109.332-2.277.223-3.305-.324-1.02-.547-1.77-1.461-2.105-2.57s-.219-2.281.328-3.305c.547-1.02 1.457-1.77 2.566-2.105.414-.125.84-.188 1.262-.188.703 0 1.402.172 2.043.516 1.02.547 1.77 1.457 2.105 2.566s.219 2.281-.324 3.305c-.546 1.019-1.46 1.769-2.57 2.105z" data-original="#000000" class="active-path" data-old_color="#000000" fill="#FFFFFF"/><path d="m69.344 54.104c.781.781 1.805 1.172 2.828 1.172s2.047-.391 2.828-1.172l3.068-3.067 3.068 3.067c.781.781 1.805 1.172 2.828 1.172s2.047-.391 2.828-1.172c1.562-1.562 1.562-4.094 0-5.656l-3.067-3.066 3.067-3.066c1.562-1.562 1.562-4.094 0-5.656s-4.094-1.562-5.656 0l-3.068 3.067-3.068-3.067c-1.562-1.562-4.094-1.562-5.656 0s-1.562 4.094 0 5.656l3.067 3.066-3.067 3.066c-1.562 1.562-1.562 4.093 0 5.656z" data-original="#000000" class="active-path" data-old_color="#000000" fill="#FFFFFF"/><path d="m136.839 184.024c-2.362 0-4.276 1.915-4.276 4.277s1.915 4.276 4.276 4.276 4.276-1.915 4.276-4.276-1.914-4.277-4.276-4.277z" data-original="#000000" class="active-path" data-old_color="#000000" fill="#FFFFFF"/><path d="m184.839 232.024c-2.362 0-4.276 1.915-4.276 4.277s1.915 4.276 4.276 4.276 4.276-1.915 4.276-4.276-1.914-4.277-4.276-4.277z" data-original="#000000" class="active-path" data-old_color="#000000" fill="#FFFFFF"/><path d="m185.116 196.301c0-2.362-1.915-4.277-4.276-4.277s-4.276 1.915-4.276 4.277 1.915 4.276 4.276 4.276 4.276-1.914 4.276-4.276z" data-original="#000000" class="active-path" data-old_color="#000000" fill="#FFFFFF"/><path d="m132.839 228.024c-2.362 0-4.276 1.915-4.276 4.277s1.915 4.276 4.276 4.276 4.276-1.915 4.276-4.276-1.914-4.277-4.276-4.277z" data-original="#000000" class="active-path" data-old_color="#000000" fill="#FFFFFF"/><path d="m156.839 208.024c-2.362 0-4.276 1.915-4.276 4.277s1.915 4.276 4.276 4.276 4.276-1.915 4.276-4.276-1.914-4.277-4.276-4.277z" data-original="#000000" class="active-path" data-old_color="#000000" fill="#FFFFFF"/><path d="m253.88 252.354h-43.494l19.467-163.527c.02-.156.027-.316.027-.473 0-13.162-32.157-17.597-48-18.987v-5.013c0-2.211-1.789-4-4-4h-8v-8c0-2.211-1.789-4-4-4h-16c-2.211 0-4 1.789-4 4v8h-8c-2.211 0-4 1.789-4 4v5.013c-16.15 1.415-48 5.869-48 18.987 0 .156.008.316.027.473l19.467 163.527h-43.495c-2.211 0-4 1.789-4 4s1.789 4 4 4h45.287c7.548 10.942 45.917 11.293 50.713 11.293s43.165-.351 50.713-11.293h45.287c2.211 0 4-1.789 4-4s-1.789-4-3.999-4zm-96-113.176c-18.292 0-46.939 2.449-56.633 10.82l-6.072-50.996c14.814 7.182 44.08 9.352 62.705 9.352 18.612 0 47.886-2.167 62.703-9.349l-6.071 50.992c-9.695-8.371-38.341-10.819-56.632-10.819zm51.906 17.176c-2.23 3.414-20.762 9.176-51.906 9.176s-49.676-5.762-51.906-9.176c2.23-3.414 20.762-9.176 51.906-9.176s49.675 5.761 51.906 9.176zm-67.906-88h8c2.211 0 4-1.789 4-4v-8h8v8c0 2.211 1.789 4 4 4h8v8h-8c-2.211 0-4 1.789-4 4v8h-8v-8c0-2.211-1.789-4-4-4h-8zm-8 9.056v2.944c0 2.211 1.789 4 4 4h8v8c0 2.211 1.789 4 4 4h16c2.211 0 4-1.789 4-4v-8h8c2.211 0 4-1.789 4-4v-2.944c28.977 2.606 39.362 8.749 39.98 10.866l-.016.134c-1.719 4.307-24.451 11.944-63.965 11.944-39.593 0-62.295-7.644-63.967-11.951l-.014-.116c.65-2.152 11.059-8.279 39.982-10.877zm24 186.236c-25.965 0-41.996-4.828-44.016-7.633-.004-.043-.008-.09-.012-.133l-10.948-91.954c10.962 7.382 37.613 9.602 54.975 9.602s44.012-2.22 54.974-9.602l-10.947 91.953c-.004.043-.008.09-.012.133-2.018 2.806-18.05 7.634-44.014 7.634z" data-original="#000000" class="active-path" data-old_color="#000000" fill="#FFFFFF"/></g></g> </svg>
